<svg width="64" height="65" fill="none" xmlns="http://www.w3.org/2000/svg"><g filter="url(#filter0_d)"><path fill-rule="evenodd" clip-rule="evenodd" d="M33.48 7.75a.75.75 0 00-1.5 0v7.556a.75.75 0 001.5 0V7.75zM16 33.894c0-9.197 7.256-16.69 16.25-16.69 8.995 0 16.25 7.493 16.25 16.69v13.652a.747.747 0 01-.179.486c2.067.685 3.522 2.75 3.522 5.114v4.34c0 .505-.392 1.014-.995 1.014H12.612c-.602 0-.995-.509-.995-1.014v-4.34c0-2.902 2.194-5.354 5.017-5.354H31.75V37.748a3.75 3.75 0 111.5-.08v10.124h13.577c.072 0 .145.002.216.005a.749.749 0 01-.043-.25V33.893c0-8.409-6.623-15.19-14.75-15.19-8.127 0-14.75 6.781-14.75 15.19v9.82a.75.75 0 01-1.5 0v-9.82zm.634 15.398c-1.89 0-3.517 1.671-3.517 3.854V57h37.226v-3.854c0-2.183-1.627-3.854-3.516-3.854H16.634zM7 34.256a.75.75 0 01.75-.75h6a.75.75 0 010 1.5h-6a.75.75 0 01-.75-.75zm3.287-14a.693.693 0 00-.99.265.812.812 0 00.283 1.058l5.943 3.703c.352.219.795.1.99-.265a.812.812 0 00-.282-1.058l-5.944-3.703zm8.355-9.74a.688.688 0 011.007.177l3.937 6.066a.818.818 0 01-.19 1.081.688.688 0 01-1.007-.177l-3.937-6.066a.818.818 0 01.19-1.081zm24.402 7.244a.688.688 0 01-1.007.177.817.817 0 01-.19-1.081l3.936-6.066a.688.688 0 011.007-.177c.33.25.416.734.19 1.081l-3.936 6.066zm11.71 2.761a.693.693 0 00-.99-.265L47.82 23.96a.812.812 0 00-.283 1.058.693.693 0 00.99.265l5.944-3.703a.812.812 0 00.283-1.058zm-3.867 12.985a.75.75 0 000 1.5h6a.75.75 0 100-1.5h-6zM32.3 31.788a2.25 2.25 0 100 4.5 2.25 2.25 0 000-4.5z" fill="#FDF151"/></g><defs><filter id="filter0_d" x=".7" y=".7" width="62.637" height="63.5" filterUnits="userSpaceOnUse" color-interpolation-filters="sRGB"><feFlood flood-opacity="0" result="BackgroundImageFix"/><feColorMatrix in="SourceAlpha" values="0 0 0 0 0 0 0 0 0 0 0 0 0 0 0 0 0 0 127 0"/><feOffset dx="-.3" dy="-.3"/><feGaussianBlur stdDeviation="3"/><feColorMatrix values="0 0 0 0 0.960784 0 0 0 0 0.917647 0 0 0 0 0.313726 0 0 0 1 0"/><feBlend in2="BackgroundImageFix" result="effect1_dropShadow"/><feBlend in="SourceGraphic" in2="effect1_dropShadow" result="shape"/></filter></defs></svg>