<svg width="59" height="59" fill="none" xmlns="http://www.w3.org/2000/svg"><g filter="url(#filter0_d)"><path fill-rule="evenodd" clip-rule="evenodd" d="M29.75 4C15.529 4 4 15.529 4 29.75 4 43.97 15.529 55.5 29.75 55.5c14.22 0 25.75-11.53 25.75-25.75C55.5 15.529 43.97 4 29.75 4zM9.142 29h-3.63a24.161 24.161 0 016.568-15.859l2.568 2.567A20.545 20.545 0 009.142 29zm6.566-14.352l-2.567-2.568A24.162 24.162 0 0129 5.511v3.63a20.545 20.545 0 00-13.292 5.507zM30.5 9.14V5.51a24.172 24.172 0 0116.452 7.147l-2.565 2.565A20.556 20.556 0 0030.5 9.141zm14.906 7.185l2.57-2.571A24.15 24.15 0 0153.989 29h-3.63a20.534 20.534 0 00-4.952-12.674zM5.51 30.5h3.631A20.551 20.551 0 0015 44.16l-2.566 2.567A24.168 24.168 0 015.511 30.5zm8.006 17.265A24.155 24.155 0 0029 53.988v-3.63a20.538 20.538 0 01-12.913-5.163l-2.57 2.57zm33.902-1.407A24.161 24.161 0 0053.99 30.5h-3.63a20.545 20.545 0 01-5.507 13.292l2.567 2.566zm-1.06 1.061l-2.567-2.567A20.545 20.545 0 0130.5 50.358v3.63a24.161 24.161 0 0015.858-6.569zM30.084 21.582a.75.75 0 00-1.208.163l-.812 1.53a.75.75 0 001.325.703l.322-.606 5.148 5.462a.75.75 0 001.004.079l6.152-4.746-3.856 11.95H20.932L17.355 24.11l6.226 4.803a.75.75 0 001.037-.116l.683-.828a.75.75 0 10-1.157-.955l-.221.268-7.492-5.78a.75.75 0 00-1.177.808l4.4 14.77a.75.75 0 00.719.536h18.333a.75.75 0 00.713-.52l4.767-14.77a.75.75 0 00-1.172-.824l-7.529 5.808-5.4-5.729zm-.335-10.954c-10.56 0-19.121 8.56-19.121 19.121 0 10.561 8.56 19.122 19.121 19.122 10.561 0 19.122-8.561 19.122-19.122 0-10.56-8.56-19.121-19.122-19.121zm.5 20.622a1 1 0 11-2 0 1 1 0 012 0zm1.5 0a2.5 2.5 0 11-5 0 2.5 2.5 0 015 0z" fill="#fff"/></g><defs><filter id="filter0_d" x=".7" y=".7" width="57.499" height="57.499" filterUnits="userSpaceOnUse" color-interpolation-filters="sRGB"><feFlood flood-opacity="0" result="BackgroundImageFix"/><feColorMatrix in="SourceAlpha" values="0 0 0 0 0 0 0 0 0 0 0 0 0 0 0 0 0 0 127 0"/><feOffset dx="-.3" dy="-.3"/><feGaussianBlur stdDeviation="1.5"/><feColorMatrix values="0 0 0 0 1 0 0 0 0 1 0 0 0 0 1 0 0 0 0.7 0"/><feBlend in2="BackgroundImageFix" result="effect1_dropShadow"/><feBlend in="SourceGraphic" in2="effect1_dropShadow" result="shape"/></filter></defs></svg>