<svg width="57" height="58" fill="none" xmlns="http://www.w3.org/2000/svg"><g filter="url(#filter0_d)"><path d="M54 14.667c0-1.853-1.447-3.36-3.226-3.36s-3.226 1.507-3.226 3.36c0 1.561 1.032 2.867 2.42 3.242v15.244h-2.42V23.91c0-2.316-1.809-4.201-4.032-4.201H9.645c-2.223 0-4.032 1.885-4.032 4.201v24.523A2.512 2.512 0 004 50.799V55h45.161v-4.2a2.512 2.512 0 00-1.613-2.366v-5.197h1.613c1.334 0 2.42-1.13 2.42-2.52V17.909c1.388-.375 2.419-1.68 2.419-3.242zM9.645 21.39h33.871c1.334 0 2.42 1.132 2.42 2.521v24.368h-8.538l-1.613-1.68h-18.41l-1.612 1.68H7.226V23.91c0-1.39 1.085-2.52 2.42-2.52zm37.903 31.93H5.613V50.8c0-.463.361-.84.806-.84h10.012l1.613-1.68h17.074l1.613 1.68h10.01c.446 0 .807.377.807.84v2.52zm1.613-11.763h-1.613v-6.722h2.42v5.882c0 .463-.362.84-.807.84zm1.613-25.208c-.89 0-1.613-.754-1.613-1.68 0-.928.724-1.681 1.613-1.681.89 0 1.613.753 1.613 1.68 0 .927-.723 1.68-1.613 1.68z" fill="#fff"/><path d="M10 33.716h5.124l-4.139 6.949 1.53.794L17 33.927v-1.843h-7v1.632zm27-1.632v1.632h5.124l-4.139 6.949 1.53.794L44 33.927v-1.843h-7zM23.985 36.54l1.53.794L30 29.802V27.96h-7v1.632h5.124l-4.139 6.949z" fill="#fff"/><path d="M25.5 6.563L26.295 5l5.75 6.353L39.95 5l-4.671 15.078H17.312L13 5l7.905 6.353.67-.845" stroke="#fff" stroke-width="1.5" stroke-linecap="round" stroke-linejoin="round"/><path d="M28.738 14.702c0 1.025-.79 1.803-1.701 1.803-.91 0-1.701-.778-1.701-1.803s.79-1.803 1.7-1.803c.912 0 1.702.778 1.702 1.803z" stroke="#fff" stroke-width="1.5"/><path d="M32.5 24.5v19m-12-19v19" stroke="#fff" stroke-width="1.5" stroke-linecap="round"/></g><defs><filter id="filter0_d" x=".7" y=".95" width="56" height="56.75" filterUnits="userSpaceOnUse" color-interpolation-filters="sRGB"><feFlood flood-opacity="0" result="BackgroundImageFix"/><feColorMatrix in="SourceAlpha" values="0 0 0 0 0 0 0 0 0 0 0 0 0 0 0 0 0 0 127 0"/><feOffset dx="-.3" dy="-.3"/><feGaussianBlur stdDeviation="1.5"/><feColorMatrix values="0 0 0 0 1 0 0 0 0 1 0 0 0 0 1 0 0 0 0.7 0"/><feBlend in2="BackgroundImageFix" result="effect1_dropShadow"/><feBlend in="SourceGraphic" in2="effect1_dropShadow" result="shape"/></filter></defs></svg>