<svg width="59" height="58" fill="none" xmlns="http://www.w3.org/2000/svg"><g filter="url(#filter0_d)"><path fill-rule="evenodd" clip-rule="evenodd" d="M5.75 4.5a.25.25 0 00-.25.25v35c0 .138.112.25.25.25h48a.25.25 0 00.25-.25v-35a.25.25 0 00-.25-.25h-48zM4 4.75C4 3.784 4.784 3 5.75 3h48c.967 0 1.75.784 1.75 1.75v35a1.75 1.75 0 01-1.75 1.75H43.6l5.064 11.958a.75.75 0 01-.691 1.042H22.75a.75.75 0 010-1.5h24.09l-4.87-11.5H17.556l-5.163 11.173a.23.23 0 00.21.327h2.75a.75.75 0 010 1.5h-2.75a1.73 1.73 0 01-1.571-2.456L15.904 41.5H5.75A1.75 1.75 0 014 39.75v-35zm18.5 9a.29.29 0 01.072-.198c.037-.041.074-.052.101-.052h1.385a.75.75 0 000-1.5h-1.385c-.98 0-1.673.841-1.673 1.75v17c0 .909.694 1.75 1.673 1.75h10.154c.98 0 1.673-.841 1.673-1.75v-17c0-.909-.694-1.75-1.673-1.75h-5a.75.75 0 000 1.5h5c.027 0 .064.01.102.052.038.042.071.11.071.198v17a.291.291 0 01-.072.198c-.037.041-.074.052-.101.052H22.673c-.027 0-.064-.01-.101-.052a.291.291 0 01-.072-.198v-17zm12.683.626a.75.75 0 01.91-.546l1.745.436a1.75 1.75 0 011.278 2.106l-2.59 10.816a.75.75 0 01-1.459-.35l2.59-10.816a.25.25 0 00-.182-.3l-1.746-.437a.75.75 0 01-.546-.91zm-7.914 3.691c.25-.422.947-.423 1.197 0l2.422 4.101a.695.695 0 010 .706l-2.423 4.102a.695.695 0 01-1.196-.001l-2.423-4.102a.693.693 0 010-.704l2.423-4.102zm-1.018 4.455l1.616 2.736 1.617-2.736-1.617-2.737-1.617 2.737z" fill="#FDF151"/></g><defs><filter id="filter0_d" x=".7" y=".3" width="57.5" height="57.5" filterUnits="userSpaceOnUse" color-interpolation-filters="sRGB"><feFlood flood-opacity="0" result="BackgroundImageFix"/><feColorMatrix in="SourceAlpha" values="0 0 0 0 0 0 0 0 0 0 0 0 0 0 0 0 0 0 127 0"/><feOffset dx="-.3" dy=".3"/><feGaussianBlur stdDeviation="1.5"/><feColorMatrix values="0 0 0 0 0.992157 0 0 0 0 0.945098 0 0 0 0 0.317647 0 0 0 1 0"/><feBlend in2="BackgroundImageFix" result="effect1_dropShadow"/><feBlend in="SourceGraphic" in2="effect1_dropShadow" result="shape"/></filter></defs></svg>