<svg width="59" height="59" fill="none" xmlns="http://www.w3.org/2000/svg"><g filter="url(#filter0_d)"><path d="M17.209 42.255l-5.246 11.354a.98.98 0 00.89 1.391h2.75" stroke="#fff" stroke-width="1.5" stroke-linecap="round"/><path d="M42.825 42.255L48.223 55H23" stroke="#fff" stroke-width="1.5" stroke-linecap="round" stroke-linejoin="round"/><path d="M54 5H6a1 1 0 00-1 1v35a1 1 0 001 1h48a1 1 0 001-1V6a1 1 0 00-1-1z" stroke="#fff" stroke-width="1.5"/><path d="M28.077 14h5c.51 0 .923.448.923 1v17c0 .552-.413 1-.923 1H22.923c-.51 0-.923-.448-.923-1V15c0-.552.413-1 .923-1h1.385m11.852 1.808l1.747.436a1 1 0 01.73 1.203l-2.59 10.816" stroke="#fff" stroke-width="1.5" stroke-linecap="round"/><path d="M28.716 19.317c-.25-.423-.947-.422-1.197 0l-2.423 4.102a.692.692 0 000 .704l2.423 4.102a.695.695 0 001.196 0l2.424-4.1a.695.695 0 000-.707l-2.423-4.101zm-.599 7.191L26.5 23.772l1.617-2.737 1.617 2.737-1.617 2.736z" fill="#fff"/></g><defs><filter id="filter0_d" x=".95" y=".95" width="57.5" height="57.5" filterUnits="userSpaceOnUse" color-interpolation-filters="sRGB"><feFlood flood-opacity="0" result="BackgroundImageFix"/><feColorMatrix in="SourceAlpha" values="0 0 0 0 0 0 0 0 0 0 0 0 0 0 0 0 0 0 127 0"/><feOffset dx="-.3" dy="-.3"/><feGaussianBlur stdDeviation="1.5"/><feColorMatrix values="0 0 0 0 1 0 0 0 0 1 0 0 0 0 1 0 0 0 0.7 0"/><feBlend in2="BackgroundImageFix" result="effect1_dropShadow"/><feBlend in="SourceGraphic" in2="effect1_dropShadow" result="shape"/></filter></defs></svg>