<svg width="65" height="64" fill="none" xmlns="http://www.w3.org/2000/svg"><g filter="url(#filter0_d)"><path fill-rule="evenodd" clip-rule="evenodd" d="M52.25 27.542c0 9.638-7.15 17.644-16.512 19.067l-.753-3.014c7.779-1.087 13.765-7.767 13.765-15.845 0-8.837-7.163-16-16-16-8.836 0-16 7.163-16 16 0 7.747 5.506 14.208 12.817 15.683l-.986 2.96c-8.775-1.89-15.33-9.623-15.33-18.85 0-10.642 8.716-19.293 19.5-19.293 10.783 0 19.5 8.651 19.5 19.292zM30.046 41.998a14.498 14.498 0 01-8.84-5.473l8.02-5.471a5.005 5.005 0 002.524 1.34v4.8a.75.75 0 00-.21.322l-1.494 4.482zm1.513.204l.875-2.625.667 2.669a14.61 14.61 0 01-1.542-.044zm-.488 1.461l-1.96 5.882h5.815l-1.453-5.811a16.35 16.35 0 01-2.401-.071zm3.548-1.532l-1.14-4.559a.75.75 0 00-.229-.379v-4.725a5.006 5.006 0 003.684-2.215l8.83 3.9c-2.103 4.265-6.24 7.347-11.145 7.978zm11.737-9.356c.578-1.565.894-3.258.894-5.025a14.43 14.43 0 00-2.142-7.589l-7.807 5.327a4.91 4.91 0 01.262 3.403l8.793 3.884zm-2.099-13.849A14.477 14.477 0 0033.25 13.26v9.357a5.006 5.006 0 013.223 1.621l7.784-5.31zM31.75 13.284c-5.186.353-9.623 3.433-11.89 7.818l8.648 3.82a5.005 5.005 0 013.242-2.231v-9.407zm-12.508 9.184a14.463 14.463 0 00-.992 5.282c0 2.76.771 5.34 2.11 7.537l7.966-5.435a4.913 4.913 0 01-.417-3.555l-8.667-3.829zM45.17 44.31a21.003 21.003 0 01-9.067 3.76l.37 1.475h3.277a.75.75 0 010 1.5h-15a.75.75 0 010-1.5h2.78a.788.788 0 01.01-.029l.564-1.692a21.004 21.004 0 01-7.928-3.628L8.515 55.351a.393.393 0 00.075.357c.112.151.336.292.655.292H22.43a.75.75 0 010 1.5H9.246c-.771 0-1.454-.348-1.862-.901a1.888 1.888 0 01-.156-2.039l.056-.106.087-.083 11.622-11.12c-4.437-3.812-7.243-9.436-7.243-15.709 0-11.483 9.402-20.792 21-20.792s21 9.309 21 20.792c0 6.345-2.87 12.026-7.395 15.84L58.299 56.24a.75.75 0 01-.55 1.26H30.32a.75.75 0 010-1.5h25.71L45.17 44.31zm-8.92-16.768c0 1.892-1.553 3.45-3.5 3.45s-3.5-1.558-3.5-3.45c0-1.891 1.553-3.45 3.5-3.45s3.5 1.559 3.5 3.45zm-8 7.68a.75.75 0 100 1.5.75.75 0 000-1.5zm-2.25.75a2.25 2.25 0 114.5 0 2.25 2.25 0 01-4.5 0zm16.5-8.91a.75.75 0 111.5 0 .75.75 0 01-1.5 0zm.75-2.25a2.25 2.25 0 100 4.5 2.25 2.25 0 000-4.5zm-6-6.42a.75.75 0 100 1.499.75.75 0 000-1.5zm-2.25.75a2.25 2.25 0 114.5 0 2.25 2.25 0 01-4.5 0zm-12.5 8.91a.75.75 0 111.5 0 .75.75 0 01-1.5 0zm.75-2.25a2.25 2.25 0 100 4.5 2.25 2.25 0 000-4.5zm4-7.41a.75.75 0 100 1.499.75.75 0 000-1.5zm-2.25.75a2.25 2.25 0 114.5 0 2.25 2.25 0 01-4.5 0zm12.5 16.83a.75.75 0 111.5 0 .75.75 0 01-1.5 0zm.75-2.25a2.25 2.25 0 100 4.5 2.25 2.25 0 000-4.5z" fill="#FDF151"/></g><defs><filter id="filter0_d" x=".7" y=".45" width="63.499" height="62.75" filterUnits="userSpaceOnUse" color-interpolation-filters="sRGB"><feFlood flood-opacity="0" result="BackgroundImageFix"/><feColorMatrix in="SourceAlpha" values="0 0 0 0 0 0 0 0 0 0 0 0 0 0 0 0 0 0 127 0"/><feOffset dx="-.3" dy="-.3"/><feGaussianBlur stdDeviation="3"/><feColorMatrix values="0 0 0 0 0.992157 0 0 0 0 0.945098 0 0 0 0 0.317647 0 0 0 1 0"/><feBlend in2="BackgroundImageFix" result="effect1_dropShadow"/><feBlend in="SourceGraphic" in2="effect1_dropShadow" result="shape"/></filter></defs></svg>