<svg width="58" height="59" fill="none" xmlns="http://www.w3.org/2000/svg"><g filter="url(#filter0_d)" stroke="#fff" stroke-width="1.5"><path clip-rule="evenodd" d="M13.884 45.792c-2.357 0-4.267 2.062-4.267 4.604v4.34c0 .146.11.264.245.264h38.236c.136 0 .245-.118.245-.264v-4.34c0-2.542-1.91-4.604-4.266-4.604H13.884z"/><path d="M45 44.796V31.144c0-8.803-6.94-15.94-15.5-15.94-8.56 0-15.5 7.137-15.5 15.94v9.82M29.98 5v7.556M5 31.506h6M7.184 18.168l5.943 3.703M16.3 8.395l3.937 6.066m19.458.097l3.937-6.066m7.735 9.676l-5.943 3.703m2.713 9.635h6" stroke-linecap="round"/><path d="M29.55 34.289a3 3 0 100-6 3 3 0 000 6zm.2-.289v11.5"/></g><defs><filter id="filter0_d" x=".95" y=".95" width="56.637" height="57.5" filterUnits="userSpaceOnUse" color-interpolation-filters="sRGB"><feFlood flood-opacity="0" result="BackgroundImageFix"/><feColorMatrix in="SourceAlpha" values="0 0 0 0 0 0 0 0 0 0 0 0 0 0 0 0 0 0 127 0"/><feOffset dx="-.3" dy="-.3"/><feGaussianBlur stdDeviation="1.5"/><feColorMatrix values="0 0 0 0 1 0 0 0 0 1 0 0 0 0 1 0 0 0 0.7 0"/><feBlend in2="BackgroundImageFix" result="effect1_dropShadow"/><feBlend in="SourceGraphic" in2="effect1_dropShadow" result="shape"/></filter></defs></svg>