<svg width="59" height="59" fill="none" xmlns="http://www.w3.org/2000/svg"><g filter="url(#filter0_d)" stroke="#fff" stroke-width="1.5"><path clip-rule="evenodd" d="M30.683 10.329L6.441 17.322c-1.088.314-1.691 1.398-1.342 2.411L15.516 49.97c.346 1.007 1.502 1.558 2.577 1.23l24.247-7.407c1.072-.327 1.657-1.406 1.307-2.409L33.226 11.56c-.346-.99-1.478-1.539-2.543-1.232z"/><path d="M14.676 10.207V7.865C14.676 6.283 16.047 5 17.739 5h23.945c1.71 0 3.088 1.31 3.062 2.908l.047 26.175" stroke-linecap="round"/><path d="M48.876 17.415l4.815 1.732c1.018.367 1.549 1.418 1.204 2.387l-11.46 32.16c-.357 1-1.513 1.541-2.583 1.207a2.196 2.196 0 01-.113-.038L31 50.5" stroke-linecap="round"/><path d="M37.136 41.29c1.127 0 2.041-.855 2.041-1.91s-.914-1.91-2.041-1.91c-1.128 0-2.042.855-2.042 1.91s.914 1.91 2.042 1.91zM11.612 23.145c1.128 0 2.042-.855 2.042-1.91s-.914-1.91-2.042-1.91c-1.127 0-2.042.855-2.042 1.91s.915 1.91 2.042 1.91zm18.276 7.393a4.788 4.788 0 00-2.327-2.756l-5.503-2.873a4.83 4.83 0 01-.86-.576 4.82 4.82 0 01-.346.974c-.678 1.396-2.033 4.189-2.712 5.585a4.789 4.789 0 00-.228 3.6c.636 1.925 2.661 2.986 4.524 2.371.513-.17.96-.449 1.325-.804a4.322 4.322 0 01-.952 3.87l6.375-2.105c-1.324-.278-2.485-1.205-3.059-2.544a3.437 3.437 0 001.54-.143c1.863-.615 2.858-2.674 2.223-4.599z"/></g><defs><filter id="filter0_d" x=".95" y=".95" width="57.502" height="57.499" filterUnits="userSpaceOnUse" color-interpolation-filters="sRGB"><feFlood flood-opacity="0" result="BackgroundImageFix"/><feColorMatrix in="SourceAlpha" values="0 0 0 0 0 0 0 0 0 0 0 0 0 0 0 0 0 0 127 0"/><feOffset dx="-.3" dy="-.3"/><feGaussianBlur stdDeviation="1.5"/><feColorMatrix values="0 0 0 0 1 0 0 0 0 1 0 0 0 0 1 0 0 0 0.7 0"/><feBlend in2="BackgroundImageFix" result="effect1_dropShadow"/><feBlend in="SourceGraphic" in2="effect1_dropShadow" result="shape"/></filter></defs></svg>