<svg width="65" height="64" fill="none" xmlns="http://www.w3.org/2000/svg"><g filter="url(#filter0_d)"><path fill-rule="evenodd" clip-rule="evenodd" d="M18.177 9.615c0-1.122.988-2.115 2.313-2.115h23.945c1.34 0 2.331 1.014 2.313 2.146v.014l.047 26.174a.75.75 0 001.5-.003l-.047-26.168C48.278 7.601 46.513 6 44.435 6H20.49c-2.058 0-3.813 1.572-3.813 3.615v2.342a.75.75 0 001.5 0V9.615zm18.508 3.448c-.489-1.4-2.045-2.113-3.458-1.705L8.984 18.352c-1.459.42-2.345 1.918-1.843 3.376l.71-.245-.71.245 10.417 30.236c.49 1.423 2.08 2.139 3.506 1.703L45.31 46.26c1.44-.44 2.3-1.93 1.795-3.373l-.665.232.665-.232-10.42-29.824zm-3.042-.264c.716-.207 1.423.177 1.626.759l10.422 29.824c.196.563-.115 1.229-.819 1.444l-24.247 7.407c-.723.22-1.445-.166-1.649-.757l-.619.213.62-.213L8.56 21.239c-.196-.568.125-1.24.84-1.446l24.243-6.994-.208-.72.208.72zm17.279 6.112a.75.75 0 01.96-.452l4.814 1.733c1.373.494 2.153 1.952 1.657 3.344l-11.46 32.16c-.504 1.412-2.093 2.114-3.513 1.672a2.903 2.903 0 01-.152-.053l-.022-.008-.022-.01-9.739-4.362a.75.75 0 01.613-1.37l9.716 4.353.024.008.014.005.015.005c.72.224 1.443-.156 1.653-.744l11.46-32.16c.194-.545-.087-1.19-.752-1.429l-4.815-1.732a.75.75 0 01-.451-.96zm-12.327 22.22c0-.595.53-1.16 1.292-1.16s1.292.565 1.292 1.16c0 .593-.53 1.16-1.292 1.16-.761 0-1.292-.566-1.292-1.16zm1.292-2.66c-1.494 0-2.792 1.144-2.792 2.66 0 1.515 1.298 2.66 2.792 2.66 1.494 0 2.792-1.145 2.792-2.66 0-1.516-1.298-2.66-2.792-2.66zM14.364 21.824c-.762 0-1.292.565-1.292 1.16 0 .594.53 1.16 1.292 1.16.761 0 1.292-.566 1.292-1.16 0-.595-.53-1.16-1.292-1.16zm-2.792 1.16c0-1.516 1.298-2.66 2.792-2.66 1.494 0 2.792 1.144 2.792 2.66 0 1.515-1.298 2.66-2.792 2.66-1.494 0-2.792-1.145-2.792-2.66zm12.86 2.523l-.928-.778-.283 1.178a4.074 4.074 0 01-.293.822l-.788 1.624c-.667 1.374-1.455 2.999-1.923 3.96a5.539 5.539 0 00-.265 4.163c.758 2.296 3.193 3.6 5.47 2.848a4.2 4.2 0 00.447-.175A3.53 3.53 0 0125 41.18l-1.852 2.085 2.648-.874 6.375-2.105 2.647-.874-2.728-.572a3.503 3.503 0 01-1.9-1.117c.154-.032.309-.073.462-.124 2.278-.752 3.458-3.25 2.7-5.546a5.538 5.538 0 00-2.692-3.186l-3.892-2.031-.011-.006-1.6-.835a4.071 4.071 0 01-.725-.487zm-.153 1.876l.059-.127c.04.023.082.045.123.066l.001.001 1.602.836 3.902 2.037a4.039 4.039 0 011.961 2.326c.513 1.553-.297 3.174-1.745 3.651-.401.133-.81.166-1.205.113l-1.309-.176.52 1.214c.375.878.97 1.608 1.696 2.137l-2.738.903a5.12 5.12 0 00.096-2.73l-.306-1.287-.947.924a2.684 2.684 0 01-1.037.63c-1.447.477-3.063-.342-3.576-1.895a4.038 4.038 0 01.19-3.037h.001l1.921-3.958.001-.002.79-1.625v-.001z" fill="#FDF151"/></g><defs><filter id="filter0_d" x=".7" y=".3" width="63.503" height="63.499" filterUnits="userSpaceOnUse" color-interpolation-filters="sRGB"><feFlood flood-opacity="0" result="BackgroundImageFix"/><feColorMatrix in="SourceAlpha" values="0 0 0 0 0 0 0 0 0 0 0 0 0 0 0 0 0 0 127 0"/><feOffset dx="-.3" dy=".3"/><feGaussianBlur stdDeviation="3"/><feColorMatrix values="0 0 0 0 0.992157 0 0 0 0 0.945098 0 0 0 0 0.317647 0 0 0 1 0"/><feBlend in2="BackgroundImageFix" result="effect1_dropShadow"/><feBlend in="SourceGraphic" in2="effect1_dropShadow" result="shape"/></filter></defs></svg>