<svg width="63" height="64" fill="none" xmlns="http://www.w3.org/2000/svg"><g filter="url(#filter0_d)"><path fill-rule="evenodd" clip-rule="evenodd" d="M29.196 7.007a.75.75 0 01.655.24l5.275 5.828 7.354-5.91a.75.75 0 011.186.807l-4.488 14.487h7.338c2.223 0 4.032 1.885 4.032 4.201v9.243h2.42V20.66c-1.388-.375-2.42-1.68-2.42-3.242 0-1.853 1.447-3.36 3.226-3.36 1.78 0 3.226 1.507 3.226 3.36 0 1.561-1.031 2.866-2.42 3.242v22.807c0 1.39-1.085 2.52-2.419 2.52h-1.613v5.197a2.512 2.512 0 011.613 2.366v4.201H7V53.55c0-1.094.677-2.018 1.613-2.366V26.66c0-2.316 1.809-4.201 4.032-4.201h6.781L15.28 7.956a.75.75 0 011.19-.79l7.318 5.88.2-.254a.75.75 0 111.176.932l-.67.845a.75.75 0 01-1.057.118L17.37 9.813l3.508 12.265h16.848l3.782-12.207-5.994 4.816a.75.75 0 01-1.025-.081l-5.02-5.545-.3.592a.75.75 0 11-1.337-.68l.795-1.563a.75.75 0 01.57-.403zm17.32 17.132h-33.87c-1.335 0-2.42 1.132-2.42 2.521v24.368h8.537l1.613-1.68h18.41l1.612 1.68h8.537V26.66c0-1.39-1.085-2.52-2.419-2.52zM8.613 56.07h41.935v-2.52c0-.463-.361-.84-.806-.84H39.73l-1.613-1.68H21.044l-1.613 1.68H9.419c-.445 0-.806.377-.806.84v2.52zm41.935-11.763h1.613c.445 0 .807-.377.807-.84v-5.882h-2.42v6.722zm1.613-26.889c0 .927.724 1.68 1.613 1.68.89 0 1.613-.753 1.613-1.68 0-.927-.723-1.68-1.613-1.68s-1.613.753-1.613 1.68zM18.124 36.466H13v-1.633h7v1.845l-4.485 7.53-1.53-.793 4.139-6.95zM40 34.833v1.633h5.124l-4.139 6.949 1.53.794L47 36.677v-1.843h-7zm-11.485 5.25l-1.53-.793 4.139-6.95H26v-1.632h7v1.845l-4.485 7.53zm2.473-22.631c0 .64-.483 1.053-.951 1.053-.468 0-.951-.413-.951-1.053 0-.64.483-1.053.95-1.053.469 0 .952.413.952 1.053zm1.5 0c0 1.41-1.097 2.553-2.451 2.553s-2.451-1.143-2.451-2.553 1.097-2.553 2.45-2.553c1.355 0 2.452 1.143 2.452 2.553zM35.5 26.5a.75.75 0 01.75.75v19a.75.75 0 01-1.5 0v-19a.75.75 0 01.75-.75zm-11.25.75a.75.75 0 00-1.5 0v19a.75.75 0 001.5 0v-19z" fill="#FDF151"/></g><defs><filter id="filter0_d" x=".7" y=".7" width="62" height="62.75" filterUnits="userSpaceOnUse" color-interpolation-filters="sRGB"><feFlood flood-opacity="0" result="BackgroundImageFix"/><feColorMatrix in="SourceAlpha" values="0 0 0 0 0 0 0 0 0 0 0 0 0 0 0 0 0 0 127 0"/><feOffset dx="-.3" dy="-.3"/><feGaussianBlur stdDeviation="3"/><feColorMatrix values="0 0 0 0 0.992157 0 0 0 0 0.945098 0 0 0 0 0.317647 0 0 0 1 0"/><feBlend in2="BackgroundImageFix" result="effect1_dropShadow"/><feBlend in="SourceGraphic" in2="effect1_dropShadow" result="shape"/></filter></defs></svg>