<svg width="65" height="65" fill="none" xmlns="http://www.w3.org/2000/svg"><g filter="url(#filter0_d)" stroke="#FDF151" stroke-width="1.5"><path clip-rule="evenodd" d="M33 58c13.807 0 25-11.193 25-25S46.806 8 33 8 8 19.193 8 33s11.193 25 25 25z"/><path d="M31.978 26.877l.811-1.53 5.867 6.222 8.066-6.223-4.766 14.77H23.623l-4.4-14.77 8.066 6.223.684-.828" stroke-linecap="round" stroke-linejoin="round"/><path clip-rule="evenodd" d="M33 52.871c10.975 0 19.872-8.897 19.872-19.872 0-10.974-8.897-19.871-19.871-19.871-10.975 0-19.872 8.897-19.872 19.871 0 10.975 8.897 19.872 19.872 19.872z"/><path d="M58 33h-5.13m-39.742 0H8m25 19.871V58M15.5 15.5l3.846 3.846M47.46 47.46l3.5 3.5m-.07-34.68l-3.124 3.125M19.721 47L16 50.722M33 8v5.128"/><circle cx="32.5" cy="34.5" r="1.75"/></g><defs><filter id="filter0_d" x=".95" y=".95" width="63.499" height="63.499" filterUnits="userSpaceOnUse" color-interpolation-filters="sRGB"><feFlood flood-opacity="0" result="BackgroundImageFix"/><feColorMatrix in="SourceAlpha" values="0 0 0 0 0 0 0 0 0 0 0 0 0 0 0 0 0 0 127 0"/><feOffset dx="-.3" dy="-.3"/><feGaussianBlur stdDeviation="3"/><feColorMatrix values="0 0 0 0 0.992157 0 0 0 0 0.945098 0 0 0 0 0.317647 0 0 0 1 0"/><feBlend in2="BackgroundImageFix" result="effect1_dropShadow"/><feBlend in="SourceGraphic" in2="effect1_dropShadow" result="shape"/></filter></defs></svg>