<svg width="58" height="58" fill="none" xmlns="http://www.w3.org/2000/svg"><path d="M37.872 27.504a1 1 0 010 1.758l-12.64 6.868a1 1 0 01-1.477-.879V21.515a1 1 0 011.478-.879l12.64 6.868z" fill="#fff"/><path d="M29 0C12.98 0 0 12.98 0 29s12.98 29 29 29 29-12.98 29-29S45.02 0 29 0zm2.23 2.345a26.544 26.544 0 019.158 2.465l-3.35 5.804a19.982 19.982 0 00-5.81-1.56v-6.71h.003zm-4.46 0v6.71a20.07 20.07 0 00-5.81 1.559L17.61 4.81a26.568 26.568 0 019.16-2.465zM13.741 7.034l3.366 5.827a20.2 20.2 0 00-4.245 4.245l-5.827-3.367a26.977 26.977 0 016.706-6.705zM4.81 17.612l5.804 3.35a19.985 19.985 0 00-1.56 5.81h-6.71a26.54 26.54 0 012.466-9.16zM2.345 31.23h6.71c.23 2.043.765 3.995 1.559 5.809L4.81 40.39a26.568 26.568 0 01-2.465-9.16zm11.397 19.735a26.954 26.954 0 01-6.708-6.708l5.826-3.366a20.211 20.211 0 004.246 4.245l-3.364 5.83zm13.027 4.69a26.54 26.54 0 01-9.157-2.466l3.35-5.804a19.983 19.983 0 005.81 1.56v6.71h-.003zM11.154 29c0-9.842 8.004-17.846 17.846-17.846S46.846 19.158 46.846 29 38.842 46.846 29 46.846 11.154 38.842 11.154 29zM31.23 55.655v-6.71a20.054 20.054 0 005.809-1.559l3.35 5.804a26.565 26.565 0 01-9.16 2.465zm13.027-4.689l-3.366-5.827a20.2 20.2 0 004.245-4.245l5.827 3.367a26.976 26.976 0 01-6.706 6.705zm8.932-10.578l-5.804-3.35a19.983 19.983 0 001.56-5.81h6.71a26.539 26.539 0 01-2.466 9.16zm2.465-13.619h-6.71a20.054 20.054 0 00-1.559-5.809l5.804-3.35a26.566 26.566 0 012.465 9.16zm-10.518-9.661a20.206 20.206 0 00-4.245-4.245l3.366-5.827a26.954 26.954 0 016.708 6.708l-5.829 3.364z" fill="#fff"/></svg>