<svg width="25" height="30" fill="none" xmlns="http://www.w3.org/2000/svg"><path d="M6.5 7.875c-.5-.833-1-3 1-5 2.5-2.5 7.5-2.5 9.5 0 2.217 2.77 1.167 4.833 1 5.5" stroke="#D45A5F"/><path d="M6 9.375c0-1.5 2.833-3 4-3.5.667.333 2.8 1.1 4 1.5 1.5.5 3.5.5 3.5.5s1 1 1 2-1 1-2 2.5c-2 2.4-3.833 2.667-4.5 2.5-2.4 0-4-2-4.5-3s-1.5-1-1.5-2.5z" stroke="#D45A5F"/><path d="M16.373 22.258c.498-2.242.663-4.463.755-6.046a22.3 22.3 0 012.534 1.221c1.199.679 2.287 1.474 2.845 2.273.264.38.521 1.006.758 1.817.233.801.435 1.74.604 2.715.296 1.698.491 3.477.593 4.762H13.155c1.733-1.776 2.679-4.308 3.219-6.742zm-6.527 3.349c.512 1.293 1.165 2.5 2.005 3.393H.568c.18-1.376.459-3.256.783-4.994.185-.996.385-1.938.588-2.71.208-.793.405-1.348.57-1.613.065-.105.197-.254.411-.44.209-.183.472-.382.775-.59a26.582 26.582 0 012.07-1.26 54.288 54.288 0 012.123-1.118 43.8 43.8 0 00.671 4.783c.296 1.487.71 3.093 1.287 4.549z" stroke="#D45A5F" stroke-linecap="round" stroke-linejoin="round"/><path d="M5 17.875c.333 2 .6 7-1 11M20.078 17.5c-.154 3.09-.184 9.318.922 11.5" stroke="#D45A5F"/><path d="M15 19.5v-3l-2.5 1.2-2.5-1.2v3l2.5-1.2 2.5 1.2z" fill="#D45A5F" stroke="#D45A5F" stroke-linecap="round" stroke-linejoin="round"/></svg>